<svg xmlns:xlink="http://www.w3.org/1999/xlink" width="552" height="485" viewBox="0 0 552 485" fill="none" xmlns="http://www.w3.org/2000/svg"><title>illustration image people link</title><circle cx="415.353" cy="370.645" r="4.32659" fill="#47ECFE"></circle><circle cx="487.463" cy="43.2659" r="7.21099" fill="#47ECFE" fill-opacity="0.5"></circle><circle cx="25.9595" cy="72.1098" r="8.65318" fill="#1DE9B6"></circle><circle cx="144.22" cy="7.21099" r="7.21099" fill="#B3E5FC"></circle><mask id="phone" mask-type="alpha" maskUnits="userSpaceOnUse" x="175" y="94" width="225" height="350" fill="none"><rect x="175.022" y="94.8914" width="224.576" height="348.989" fill="#FFFFFF"></rect></mask><g mask="url(#phone)" fill="none"><g filter="url(#filter0_f)" fill="none"><rect x="195.054" y="128.63" width="182.402" height="330.011" rx="10" fill="#F8F9FD"></rect><rect x="195.581" y="126.356" width="181.39" height="334.263" rx="12" fill="#F8F9FD" stroke="#CBCED2" stroke-width="4px"></rect><path d="M242.289 128.356H333.147L328.17 139.554C327.689 140.637 326.614 141.335 325.429 141.335H250.007C248.821 141.335 247.747 140.637 247.266 139.554L242.289 128.356Z" fill="#CBCED2"></path><rect x="209.118" y="173.064" width="154.315" height="145.662" rx="5" fill="#F1F3F7"></rect><circle cx="285.555" cy="242.289" r="21.633" fill="#CBCED2" fill-opacity="0.24"></circle><path d="M295.844 241.457C296.438 241.853 296.438 242.725 295.844 243.121L281.341 252.79C280.676 253.233 279.786 252.757 279.786 251.958L279.786 232.62C279.786 231.821 280.676 231.345 281.341 231.788L295.844 241.457Z" fill="#CBCED2"></path><rect x="209.118" y="334.59" width="154.315" height="36.0549" rx="5" fill="#F1F3F7"></rect></g></g><circle cx="500.443" cy="340.359" r="24.5174" fill="#46EDC3"></circle><path d="M499.41 341.393C501.092 343.764 504.633 343.348 506.367 341.393L509.817 337.924C511.767 335.794 511.836 333.042 509.817 330.985C507.847 328.978 504.849 328.978 502.879 330.985L499.41 334.454" stroke="#FFFFFF" stroke-width="1.3px" stroke-linecap="round" stroke-linejoin="round" fill="none"></path><path d="M502.879 339.78C501.196 337.408 497.675 337.703 495.941 339.658L492.472 343.084C490.522 345.214 490.453 348.008 492.472 350.065C494.442 352.072 497.439 352.072 499.41 350.065L502.879 346.596" stroke="#FFFFFF" stroke-width="1.3px" stroke-linecap="round" stroke-linejoin="round" fill="none"></path><g filter="url(#filter1_f)" fill="none"><circle cx="532.011" cy="94.5438" r="17.3064" fill="#46EDC3"></circle><path d="M531.282 95.2733C532.469 96.9471 534.968 96.6532 536.193 95.2733L538.628 92.8246C540.004 91.321 540.053 89.3791 538.628 87.927C537.237 86.5103 535.121 86.5103 533.73 87.927L531.282 90.3758" stroke="#FFFFFF" stroke-width="1.1px" stroke-linecap="round" stroke-linejoin="round" fill="none"></path><path d="M533.73 94.1347C532.543 92.4609 530.057 92.6691 528.833 94.049L526.384 96.4671C525.008 97.9707 524.959 99.9432 526.384 101.395C527.775 102.812 529.891 102.812 531.282 101.395L533.73 98.9465" stroke="#FFFFFF" stroke-width="1.1px" stroke-linecap="round" stroke-linejoin="round" fill="none"></path></g><g filter="url(#filter2_f)" fill="none"><circle cx="540.824" cy="232.194" r="8.65318" fill="#47ECFE" fill-opacity="0.6"></circle></g><g filter="url(#filter3_f)" fill="none"><circle cx="55.6467" cy="344.086" r="5.04769" fill="#47ECFE"></circle></g><circle cx="30.2861" cy="69.2253" r="30.2861" fill="#46EDC3"></circle><path d="M29.0092 70.5025C31.0876 73.4315 35.4608 72.9173 37.6035 70.5025L41.8653 66.2171C44.2737 63.5859 44.3594 60.1876 41.8653 57.6463C39.4312 55.1672 35.7286 55.1672 33.2945 57.6463L29.0092 61.9317" stroke="#FFFFFF" stroke-width="1.5px" stroke-linecap="round" stroke-linejoin="round" fill="none"></path><path d="M33.2945 68.5097C31.216 65.5807 26.8664 65.9449 24.7237 68.3598L20.4383 72.5916C18.0299 75.2228 17.9442 78.6747 20.4383 81.2159C22.8724 83.695 26.575 83.695 29.0091 81.2159L33.2945 76.9305" stroke="#FFFFFF" stroke-width="1.5px" stroke-linecap="round" stroke-linejoin="round" fill="none"></path><path fill-rule="evenodd" clip-rule="evenodd" d="M445.256 186.829L443.261 186.689C443.353 185.383 443.428 184.072 443.487 182.757C443.547 181.421 443.589 180.088 443.615 178.759L445.614 178.796C445.589 180.143 445.546 181.493 445.485 182.846C445.426 184.178 445.349 185.506 445.256 186.829ZM445.558 170.718L443.56 170.783C443.472 168.113 443.315 165.459 443.09 162.823L445.083 162.653C445.311 165.324 445.47 168.012 445.558 170.718ZM444.187 154.624L442.205 154.898C441.84 152.254 441.406 149.632 440.905 147.031L442.869 146.653C443.376 149.288 443.816 151.946 444.187 154.624ZM441.134 138.763L439.193 139.244C438.551 136.656 437.844 134.094 437.071 131.558L438.985 130.975C439.767 133.544 440.484 136.141 441.134 138.763ZM436.428 123.312L434.548 123.994C433.639 121.491 432.665 119.016 431.63 116.574L433.471 115.793C434.52 118.268 435.506 120.775 436.428 123.312ZM430.123 108.44L428.325 109.317C427.158 106.923 425.93 104.564 424.643 102.242L426.393 101.272C427.696 103.625 428.941 106.015 430.123 108.44ZM422.293 94.3093L420.596 95.3687C419.187 93.1118 417.719 90.8937 416.196 88.7167L417.835 87.5702C419.378 89.7756 420.865 92.0227 422.293 94.3093ZM413.032 81.0728L411.455 82.3031C409.819 80.2063 408.129 78.1529 406.387 76.1451L407.897 74.8343C409.662 76.8684 411.375 78.9486 413.032 81.0728ZM402.445 68.8715L401.005 70.259C399.161 68.3445 397.266 66.4777 395.324 64.6608L396.69 63.2003C398.658 65.0408 400.577 66.932 402.445 68.8715ZM390.648 57.8362L389.36 59.366C387.327 57.6545 385.249 55.9949 383.127 54.3893L384.334 52.7944C386.484 54.421 388.589 56.1024 390.648 57.8362ZM377.765 48.089L376.643 49.7448C374.445 48.2554 372.205 46.8218 369.925 45.446L370.959 43.7336C373.268 45.1276 375.538 46.5801 377.765 48.089ZM363.934 39.742L362.992 41.5062C360.652 40.2566 358.275 39.0661 355.862 37.9367L356.71 36.1254C359.154 37.2697 361.563 38.4759 363.934 39.742ZM349.305 32.8943L348.554 34.7478C346.098 33.7522 343.608 32.8185 341.088 31.9487L341.741 30.0582C344.294 30.9394 346.816 31.8855 349.305 32.8943ZM334.037 27.625L333.485 29.5474C330.94 28.8167 328.366 28.1502 325.766 27.5499L326.216 25.6011C328.85 26.2094 331.458 26.8846 334.037 27.625ZM318.299 23.991L317.952 25.9607C315.346 25.5015 312.717 25.1081 310.065 24.7823L310.309 22.7972C312.995 23.1273 315.659 23.5259 318.299 23.991ZM302.267 22.0202L302.126 24.0153C300.8 23.9217 299.469 23.8448 298.133 23.7851C296.797 23.7253 295.464 23.6829 294.135 23.6577L294.173 21.6581C295.519 21.6836 296.869 21.7265 298.222 21.7871C299.576 21.8476 300.924 21.9254 302.267 22.0202ZM286.094 21.7137L286.16 23.7127C283.489 23.8003 280.835 23.9573 278.199 24.1819L278.029 22.1891C280.7 21.9616 283.389 21.8026 286.094 21.7137ZM270 23.0857L270.274 25.0668C267.631 25.4325 265.008 25.8665 262.408 26.3669L262.03 24.403C264.664 23.8959 267.322 23.4562 270 23.0857ZM254.139 26.1384L254.62 28.0797C252.033 28.7208 249.47 29.4285 246.934 30.2007L246.352 28.2875C248.921 27.505 251.517 26.788 254.139 26.1384ZM238.688 30.8444L239.371 32.7242C236.867 33.6336 234.393 34.607 231.95 35.6426L231.17 33.8013C233.644 32.7521 236.151 31.7658 238.688 30.8444ZM223.817 37.1496L224.693 38.9474C222.3 40.1141 219.941 41.342 217.618 42.629L216.649 40.8796C219.002 39.5757 221.392 38.3317 223.817 37.1496ZM209.686 44.9795L210.745 46.6759C208.488 48.0855 206.27 49.5529 204.093 51.0761L202.947 49.4373C205.152 47.8943 207.399 46.4077 209.686 44.9795ZM196.449 54.2402L197.68 55.817C195.583 57.4531 193.529 59.1432 191.521 60.8854L190.211 59.3748C192.245 57.6099 194.325 55.8977 196.449 54.2402ZM184.248 64.8269L185.635 66.2673C183.721 68.1115 181.854 70.0058 180.037 71.9481L178.577 70.5818C180.417 68.6141 182.308 66.6952 184.248 64.8269ZM173.213 76.6243L174.742 77.9126C173.031 79.9449 171.371 82.023 169.766 84.145L168.171 82.9383C169.797 80.7884 171.479 78.6831 173.213 76.6243ZM163.465 89.5072L165.121 90.6289C163.632 92.8274 162.198 95.0674 160.822 97.3471L159.11 96.3137C160.504 94.004 161.957 91.7345 163.465 89.5072ZM155.118 103.338L156.883 104.28C155.633 106.62 154.443 108.998 153.313 111.41L151.502 110.562C152.646 108.118 153.852 105.709 155.118 103.338ZM148.271 117.967L150.124 118.718C149.129 121.175 148.195 123.664 147.325 126.184L145.435 125.532C146.316 122.978 147.262 120.456 148.271 117.967ZM143.001 133.235L144.924 133.787C144.193 136.332 143.527 138.906 142.926 141.506L140.978 141.057C141.586 138.422 142.261 135.814 143.001 133.235ZM139.367 148.973L141.337 149.32C140.878 151.926 140.485 154.555 140.159 157.207L138.174 156.964C138.504 154.277 138.902 151.613 139.367 148.973ZM137.397 165.005C137.302 166.348 137.224 167.697 137.163 169.05C137.103 170.403 137.06 171.753 137.034 173.099L139.034 173.137C139.059 171.808 139.102 170.475 139.161 169.139C139.221 167.803 139.298 166.472 139.392 165.146L137.397 165.005ZM137.09 181.178L139.089 181.112C139.177 183.783 139.334 186.437 139.558 189.073L137.566 189.243C137.338 186.572 137.179 183.883 137.09 181.178ZM138.462 197.272L140.443 196.998C140.809 199.641 141.243 202.264 141.743 204.865L139.779 205.243C139.272 202.608 138.833 199.95 138.462 197.272ZM141.515 213.133L143.456 212.652C144.097 215.24 144.805 217.802 145.577 220.338L143.664 220.921C142.881 218.351 142.164 215.755 141.515 213.133ZM146.221 228.584L148.101 227.901C149.01 230.405 149.983 232.879 151.019 235.322L149.178 236.102C148.129 233.628 147.142 231.121 146.221 228.584ZM152.526 243.455L154.324 242.579C155.491 244.972 156.718 247.332 158.005 249.654L156.256 250.624C154.952 248.27 153.708 245.88 152.526 243.455ZM160.356 257.587L162.052 256.527C163.462 258.784 164.929 261.002 166.452 263.179L164.814 264.326C163.271 262.12 161.784 259.873 160.356 257.587ZM169.617 270.823L171.193 269.593C172.83 271.689 174.52 273.743 176.262 275.751L174.751 277.061C172.986 275.027 171.274 272.947 169.617 270.823ZM180.203 283.024L181.644 281.637C183.488 283.551 185.382 285.418 187.325 287.235L185.958 288.696C183.991 286.855 182.072 284.964 180.203 283.024ZM192.001 294.06L193.289 292.53C195.321 294.241 197.399 295.901 199.521 297.507L198.315 299.101C196.165 297.475 194.06 295.793 192.001 294.06ZM204.884 303.807L206.005 302.151C208.204 303.64 210.444 305.074 212.724 306.45L211.69 308.162C209.38 306.768 207.111 305.316 204.884 303.807ZM218.715 312.154L219.657 310.39C221.997 311.639 224.374 312.83 226.787 313.959L225.939 315.77C223.494 314.626 221.086 313.42 218.715 312.154ZM233.343 319.002L234.095 317.148C236.551 318.144 239.04 319.077 241.561 319.947L240.908 321.838C238.355 320.956 235.832 320.01 233.343 319.002ZM248.612 324.271L249.164 322.348C251.709 323.079 254.283 323.746 256.883 324.346L256.433 326.295C253.798 325.686 251.191 325.011 248.612 324.271ZM264.35 327.905L264.697 325.935C267.302 326.394 269.932 326.788 272.584 327.113L272.34 329.099C269.653 328.768 266.989 328.37 264.35 327.905ZM280.381 329.876L280.522 327.881C281.848 327.974 283.18 328.051 284.516 328.111C285.899 328.173 287.279 328.216 288.655 328.241L288.619 330.24C287.225 330.215 285.827 330.171 284.426 330.109C283.073 330.048 281.725 329.97 280.381 329.876ZM297.007 330.167L296.936 328.168C299.709 328.069 302.464 327.895 305.2 327.648L305.38 329.64C302.608 329.89 299.817 330.066 297.007 330.167ZM313.71 328.659L313.423 326.68C316.165 326.281 318.885 325.809 321.58 325.265L321.975 327.225C319.245 327.777 316.489 328.255 313.71 328.659ZM330.15 325.341L329.647 323.406C332.327 322.71 334.978 321.943 337.6 321.107L338.208 323.012C335.551 323.86 332.864 324.637 330.15 325.341ZM346.127 320.246L345.416 318.377C346.707 317.885 347.991 317.377 349.265 316.852C350.479 316.352 351.685 315.837 352.883 315.307L353.692 317.135C352.478 317.673 351.257 318.195 350.027 318.701C348.736 319.233 347.436 319.748 346.127 320.246ZM360.892 313.723L359.989 311.938C362.331 310.753 364.64 309.508 366.912 308.207L367.906 309.942C365.604 311.261 363.265 312.522 360.892 313.723ZM374.715 305.805L373.633 304.123C375.84 302.704 378.008 301.228 380.136 299.699L381.303 301.323C379.147 302.872 376.951 304.367 374.715 305.805ZM387.651 296.509L386.402 294.947C388.451 293.309 390.456 291.619 392.417 289.878L393.745 291.374C391.758 293.137 389.727 294.849 387.651 296.509ZM399.566 285.934L398.164 284.508C400.033 282.67 401.854 280.784 403.627 278.851L405.101 280.203C403.305 282.161 401.46 284.072 399.566 285.934ZM410.335 274.194L408.794 272.92C410.463 270.901 412.081 268.838 413.647 266.732L415.252 267.925C413.666 270.059 412.026 272.149 410.335 274.194ZM419.84 261.41L418.176 260.301C419.628 258.123 421.025 255.904 422.366 253.647L424.085 254.669C422.727 256.955 421.311 259.203 419.84 261.41ZM427.977 247.715L426.207 246.784C427.425 244.469 428.585 242.118 429.686 239.732L431.502 240.57C430.386 242.987 429.211 245.369 427.977 247.715ZM434.651 233.251C435.634 230.791 436.556 228.3 437.415 225.778L435.522 225.133C434.674 227.622 433.764 230.081 432.794 232.508L434.651 233.251ZM439.787 218.172L437.862 217.627C438.575 215.113 439.225 212.573 439.81 210.006L441.76 210.451C441.167 213.051 440.508 215.626 439.787 218.172ZM443.33 202.642L441.36 202.299C441.808 199.727 442.193 197.132 442.511 194.515L444.496 194.757C444.174 197.408 443.784 200.037 443.33 202.642Z" fill="#1CE8B6"></path><g filter="url(#filter4_f)" fill="none"><circle cx="58.4089" cy="205.513" r="16.6883" fill="#46EDC3"></circle><path d="M57.705 206.217C58.8502 207.831 61.2599 207.547 62.4406 206.217L64.789 203.855C66.116 202.405 66.1633 200.533 64.789 199.133C63.4477 197.767 61.4075 197.767 60.0663 199.133L57.705 201.494" stroke="#FFFFFF" stroke-width="1.3px" stroke-linecap="round" stroke-linejoin="round" fill="none"></path><path d="M60.0663 205.119C58.9211 203.505 56.5243 203.705 55.3437 205.036L52.9823 207.368C51.6553 208.818 51.608 210.72 52.9823 212.12C54.3236 213.486 56.3638 213.486 57.705 212.12L60.0663 209.759" stroke="#FFFFFF" stroke-width="1.3px" stroke-linecap="round" stroke-linejoin="round" fill="none"></path></g><rect x="196" y="43" width="25" height="9" fill="#EEFEFA"></rect><rect x="323.443" y="34.5784" width="24.5174" height="10.5602" transform="rotate(-49.2635 323.443 34.5784)" fill="#EEFEFA"></rect><rect x="435.543" y="190.37" width="20.1908" height="12.9798" fill="#EDFDFA"></rect><rect x="436" y="190" width="20" height="13" fill="#EDFDFA"></rect><rect x="426.89" y="132.682" width="20.1908" height="12.9798" fill="#EDFDFA"></rect><rect x="131" y="206" width="20" height="9" fill="#EDFDFA"></rect><rect x="131" y="160" width="20" height="9" fill="#EDFDFA"></rect><mask id="person4" mask-type="alpha" maskUnits="userSpaceOnUse" x="351" y="193" width="108" height="107" fill="none"><rect x="351.896" y="193.255" width="106.723" height="106.723" rx="14" fill="#FFFFFF"></rect></mask><g mask="url(#person4)" fill="none"><rect x="351.896" y="193.255" width="106.723" height="106.723" rx="14" fill="#518CFF"></rect><path d="M430.637 261.583C426.732 257.028 428.731 229.214 423.916 222.215C420.136 216.787 413.926 213.691 405.962 213.691C397.502 213.691 391.742 216.383 388.142 222.754C384.272 229.528 383.132 258.98 378.513 265.488C371.419 277.201 383.132 286.312 383.132 286.312L429.335 285.661C429.335 285.661 439.747 273.948 430.637 261.583Z" fill="#15285B"></path><path d="M386.614 247.296C389.099 247.296 391.113 245.287 391.113 242.809C391.113 240.331 389.099 238.323 386.614 238.323C384.128 238.323 382.114 240.331 382.114 242.809C382.114 245.287 384.128 247.296 386.614 247.296Z" fill="#FFD7CA"></path><path d="M405.963 270.445C409.203 270.445 412.308 268.606 414.783 265.376C414.558 261.472 414.918 257.883 414.918 257.883H397.189C397.189 257.883 397.234 260.844 396.964 264.299C396.964 264.568 396.919 264.792 396.919 265.062C399.394 268.471 402.588 270.445 405.963 270.445Z" fill="#DBB3A6"></path><path d="M425.311 247.296C427.796 247.296 429.81 245.287 429.81 242.809C429.81 240.331 427.796 238.323 425.311 238.323C422.825 238.323 420.811 240.331 420.811 242.809C420.811 245.287 422.825 247.296 425.311 247.296Z" fill="#FFD7CA"></path><path d="M386.658 238.323C386.658 238.323 386.568 241.194 386.568 242.674C386.568 244.29 386.703 245.815 386.883 247.296H386.163C385.488 242.136 386.658 238.323 386.658 238.323Z" fill="#DBB3A6"></path><path d="M425.222 238.323C425.222 238.323 425.312 241.194 425.312 242.674C425.312 244.29 425.177 245.815 424.997 247.296H425.717C426.392 242.136 425.222 238.323 425.222 238.323Z" fill="#DBB3A6"></path><path d="M413.067 220.586C413.067 220.586 403.946 229.967 399.401 233.601C399.401 233.601 390.844 238.95 386.66 238.412C386.615 239.802 386.615 241.238 386.615 242.674C386.615 256.896 395.659 267.036 405.964 267.036C416.268 267.036 425.313 256.941 425.313 242.674C425.313 241.238 425.313 239.802 425.223 238.367C418.924 236.855 413.067 220.586 413.067 220.586Z" fill="#FFD7CA"></path><path d="M412.577 246.713C414.068 246.713 415.276 245.206 415.276 243.348C415.276 241.489 414.068 239.983 412.577 239.983C411.085 239.983 409.877 241.489 409.877 243.348C409.877 245.206 411.085 246.713 412.577 246.713Z" fill="#282B30"></path><path d="M416.042 236.886C415.232 236.213 413.612 236.034 412.577 236.079C409.877 236.124 408.842 236.528 408.842 237.021C408.797 237.515 410.372 237.694 411.497 237.784C412.667 237.873 414.647 237.963 415.637 237.784C416.582 237.649 416.267 237.066 416.042 236.886Z" fill="#44251B"></path><path d="M395.882 236.886C396.692 236.213 398.312 236.034 399.347 236.079C402.047 236.124 403.082 236.528 403.082 237.021C403.127 237.515 401.552 237.694 400.427 237.784C399.257 237.873 397.277 237.963 396.287 237.784C395.342 237.649 395.657 237.066 395.882 236.886Z" fill="#44251B"></path><path d="M399.349 246.713C400.84 246.713 402.049 245.206 402.049 243.348C402.049 241.489 400.84 239.983 399.349 239.983C397.858 239.983 396.649 241.489 396.649 243.348C396.649 245.206 397.858 246.713 399.349 246.713Z" fill="#282B30"></path><path d="M406.098 256.807C404.253 256.807 402.408 256.313 401.463 255.281C401.148 254.967 401.148 254.429 401.463 254.07C401.778 253.756 402.318 253.756 402.678 254.07C403.893 255.326 408.123 255.506 409.743 254.025C410.103 253.711 410.643 253.756 410.913 254.07C411.228 254.429 411.183 254.967 410.868 255.236C409.743 256.358 407.898 256.807 406.098 256.807Z" fill="#DBB3A6"></path><path d="M406.142 251.96C406.097 251.96 406.052 251.96 406.007 251.96L405.062 251.691C404.027 251.422 403.442 250.345 403.712 249.358L404.927 244.558C405.017 244.244 405.332 244.064 405.602 244.154C405.917 244.244 406.097 244.558 406.007 244.827L404.792 249.627C404.702 250.076 404.927 250.48 405.377 250.614L406.322 250.884C406.637 250.973 406.817 251.287 406.727 251.557C406.637 251.781 406.412 251.96 406.142 251.96Z" fill="#DBB3A6"></path><path d="M445.696 300.46H366.364C366.364 286.373 377.794 274.977 391.923 274.977H420.182C434.266 274.977 445.696 286.418 445.696 300.46Z" fill="#93D4F9"></path><path d="M419.329 274.978C417.214 274.978 416.044 272.914 415.414 270.222C415.054 268.741 414.874 267.036 414.784 265.376C412.309 268.607 409.249 270.446 405.964 270.446C402.589 270.446 399.394 268.472 396.919 265.018C396.47 269.728 395.39 274.978 392.78 274.978C401.419 280.137 410.239 280.227 419.329 274.978Z" fill="#FFD7CA"></path></g><mask id="person3" mask-type="alpha" maskUnits="userSpaceOnUse" x="98" y="209" width="136" height="136" fill="none"><rect x="98.0695" y="209.119" width="135.567" height="135.567" rx="20" fill="#FFFFFF"></rect></mask><g mask="url(#person3)" fill="none"><rect x="98.0695" y="209.119" width="135.567" height="135.567" rx="20" fill="#64CECE"></rect><path d="M213.835 344.227H116.818C116.818 327.117 130.796 313.277 148.075 313.277H182.633C199.857 313.277 213.835 327.117 213.835 344.227Z" fill="#6B778A"></path><path d="M141.636 279.656C144.676 279.656 147.139 277.217 147.139 274.207C147.139 271.198 144.676 268.758 141.636 268.758C138.597 268.758 136.133 271.198 136.133 274.207C136.133 277.217 138.597 279.656 141.636 279.656Z" fill="#FFD7CA"></path><path d="M165.354 307.775C169.316 307.775 173.113 305.54 176.14 301.617C175.865 296.877 176.305 292.517 176.305 292.517H154.569C154.569 292.517 154.624 296.114 154.293 300.309C154.293 300.636 154.238 300.909 154.238 301.236C157.32 305.377 161.227 307.775 165.354 307.775Z" fill="#DBB3A6"></path><path d="M189.016 279.656C192.055 279.656 194.519 277.217 194.519 274.207C194.519 271.198 192.055 268.758 189.016 268.758C185.977 268.758 183.513 271.198 183.513 274.207C183.513 277.217 185.977 279.656 189.016 279.656Z" fill="#FFD7CA"></path><path d="M141.747 268.758C141.747 268.758 141.637 272.246 141.637 274.044C141.637 276.006 141.802 277.858 142.022 279.656H141.141C140.316 273.39 141.747 268.758 141.747 268.758Z" fill="#DBB3A6"></path><path d="M188.906 268.758C188.906 268.758 189.016 272.246 189.016 274.044C189.016 276.006 188.851 277.858 188.631 279.656H189.511C190.337 273.39 188.906 268.758 188.906 268.758Z" fill="#DBB3A6"></path><path d="M165.355 241.895C187.036 241.895 189.017 256.717 189.017 273.99C189.017 291.263 177.956 303.578 165.355 303.578C152.753 303.578 141.692 291.318 141.692 273.99C141.692 256.662 143.673 241.895 165.355 241.895Z" fill="#FFD7CA"></path><path d="M173.39 278.893C175.213 278.893 176.692 277.063 176.692 274.806C176.692 272.549 175.213 270.72 173.39 270.72C171.566 270.72 170.088 272.549 170.088 274.806C170.088 277.063 171.566 278.893 173.39 278.893Z" fill="#282B30"></path><path d="M177.68 267.015C176.69 266.197 174.709 265.979 173.443 266.034C170.141 266.088 168.876 266.579 168.876 267.178C168.821 267.778 170.747 267.995 172.122 268.104C173.553 268.213 175.974 268.322 177.185 268.104C178.341 267.941 177.956 267.233 177.68 267.015Z" fill="#44331B"></path><path d="M152.973 267.015C153.963 266.197 155.944 265.979 157.21 266.034C160.512 266.088 161.778 266.579 161.778 267.178C161.833 267.778 159.907 267.995 158.531 268.104C157.1 268.213 154.679 268.322 153.468 268.104C152.313 267.941 152.698 267.233 152.973 267.015Z" fill="#44331B"></path><path d="M157.264 278.893C159.087 278.893 160.566 277.063 160.566 274.806C160.566 272.549 159.087 270.72 157.264 270.72C155.44 270.72 153.962 272.549 153.962 274.806C153.962 277.063 155.44 278.893 157.264 278.893Z" fill="#282B30"></path><path d="M165.464 291.208C163.208 291.208 160.951 290.608 159.796 289.355C159.411 288.973 159.411 288.32 159.796 287.884C160.181 287.502 160.841 287.502 161.282 287.884C162.767 289.409 167.94 289.627 169.921 287.829C170.361 287.448 171.022 287.502 171.352 287.884C171.737 288.32 171.682 288.973 171.297 289.3C169.976 290.663 167.72 291.208 165.464 291.208Z" fill="#DBB3A6"></path><path d="M165.575 285.324C165.52 285.324 165.465 285.324 165.41 285.324L164.254 284.997C162.989 284.67 162.273 283.363 162.604 282.164L164.089 276.333C164.199 275.952 164.585 275.734 164.915 275.843C165.3 275.952 165.52 276.333 165.41 276.66L163.924 282.491C163.814 283.036 164.089 283.526 164.64 283.689L165.795 284.016C166.18 284.125 166.401 284.507 166.29 284.834C166.125 285.106 165.85 285.324 165.575 285.324Z" fill="#DBB3A6"></path><path d="M189.017 268.758C189.017 268.758 185.77 269.685 183.514 266.034C182.358 264.072 183.569 257.261 181.092 256.117C173.939 252.847 164.694 262.492 157.265 262.874C148.13 263.364 148.24 256.825 148.24 256.825C148.24 256.825 148.79 266.252 141.636 268.758C141.636 268.758 139.82 260.966 139.82 254.918C139.82 248.87 143.122 239.388 156.164 236.555C183.514 230.615 183.514 244.51 183.514 244.51C183.514 244.51 187.751 242.167 191.108 247.834C194.52 253.447 189.017 268.758 189.017 268.758Z" fill="#3D3D3D"></path><path d="M181.699 313.277C179.112 313.277 177.681 310.77 176.911 307.501C176.471 305.703 176.251 303.632 176.141 301.616C173.114 305.539 169.372 307.773 165.355 307.773C161.228 307.773 157.321 305.376 154.294 301.18C153.744 306.901 152.423 313.277 149.231 313.277C160.072 319.053 170.913 319.053 181.699 313.277Z" fill="#FFD7CA"></path></g><mask id="mask3" mask-type="alpha" maskUnits="userSpaceOnUse" x="328" y="27" width="120" height="119" fill="none"><rect x="328.821" y="27.4017" width="118.26" height="118.26" rx="17" fill="#FFFFFF"></rect></mask><g mask="url(#mask3)" fill="none"><rect x="328.821" y="27.4017" width="118.26" height="118.26" rx="17" fill="#A6CFFF"></rect><path d="M432.761 146.198H344.853C344.853 130.587 357.518 117.96 373.175 117.96H404.489C420.096 117.96 432.761 130.637 432.761 146.198Z" fill="#A6AFFF"></path><path d="M416.704 88.08C411.468 84.4507 413.961 67.2493 408.626 59.4937C404.438 53.4781 397.557 50.0478 388.731 50.0478C379.357 50.0478 372.974 53.0307 368.985 60.0903C364.697 67.5973 366.941 83.0587 360.658 88.08C351.783 95.1892 358.315 103.79 358.315 103.79H420.144C420.144 103.79 427.973 95.9847 416.704 88.08Z" fill="#282B30"></path><path d="M367.292 87.2859C370.046 87.2859 372.278 85.06 372.278 82.3143C372.278 79.5686 370.046 77.3428 367.292 77.3428C364.538 77.3428 362.305 79.5686 362.305 82.3143C362.305 85.06 364.538 87.2859 367.292 87.2859Z" fill="#FFD7CA"></path><path d="M388.732 112.938C392.322 112.938 395.763 110.9 398.505 107.32C398.256 102.995 398.655 99.018 398.655 99.018H379.009C379.009 99.018 379.059 102.299 378.76 106.127C378.76 106.426 378.71 106.674 378.71 106.972C381.452 110.751 384.993 112.938 388.732 112.938Z" fill="#DBB3A6"></path><path d="M410.173 87.2859C412.926 87.2859 415.159 85.06 415.159 82.3143C415.159 79.5686 412.926 77.3428 410.173 77.3428C407.419 77.3428 405.186 79.5686 405.186 82.3143C405.186 85.06 407.419 87.2859 410.173 87.2859Z" fill="#FFD7CA"></path><path d="M367.342 77.3428C367.342 77.3428 367.242 80.5246 367.242 82.1652C367.242 83.955 367.392 85.6453 367.591 87.2859H366.793C366.045 81.5686 367.342 77.3428 367.342 77.3428Z" fill="#DBB3A6"></path><path d="M410.075 77.3428C410.075 77.3428 410.174 80.5246 410.174 82.1652C410.174 83.955 410.025 85.6453 409.825 87.2859H410.623C411.371 81.5686 410.075 77.3428 410.075 77.3428Z" fill="#DBB3A6"></path><path d="M378.013 61.5818C378.013 61.5818 377.116 68.3431 372.08 72.37C372.08 72.37 371.98 78.0376 367.343 77.441C367.293 78.9822 367.293 80.5731 367.293 82.164C367.293 97.9237 377.315 109.159 388.734 109.159C400.152 109.159 410.175 97.9734 410.175 82.164C410.175 80.5731 410.175 78.9822 410.075 77.3913C390.08 75.3032 378.013 61.5818 378.013 61.5818Z" fill="#FFD7CA"></path><path d="M396.061 86.6388C397.714 86.6388 399.053 84.9694 399.053 82.9101C399.053 80.8509 397.714 79.1815 396.061 79.1815C394.409 79.1815 393.069 80.8509 393.069 82.9101C393.069 84.9694 394.409 86.6388 396.061 86.6388Z" fill="#282B30"></path><path d="M399.901 75.7507C399.003 75.005 397.208 74.8061 396.061 74.8558C393.07 74.9055 391.923 75.353 391.923 75.8999C391.873 76.4467 393.618 76.6456 394.865 76.745C396.161 76.8444 398.355 76.9439 399.452 76.745C400.499 76.5959 400.15 75.9496 399.901 75.7507Z" fill="#44331B"></path><path d="M377.562 75.7507C378.46 75.005 380.255 74.8061 381.402 74.8558C384.393 74.9055 385.54 75.353 385.54 75.8999C385.59 76.4467 383.845 76.6456 382.598 76.745C381.302 76.8444 379.108 76.9439 378.011 76.745C376.964 76.5959 377.313 75.9496 377.562 75.7507Z" fill="#44331B"></path><path d="M381.403 86.6388C383.055 86.6388 384.395 84.9694 384.395 82.9101C384.395 80.8509 383.055 79.1815 381.403 79.1815C379.751 79.1815 378.411 80.8509 378.411 82.9101C378.411 84.9694 379.751 86.6388 381.403 86.6388Z" fill="#282B30"></path><path d="M388.882 97.8247C386.838 97.8247 384.794 97.2778 383.746 96.1344C383.397 95.7864 383.397 95.1898 383.746 94.7921C384.095 94.4441 384.694 94.4441 385.093 94.7921C386.439 96.1841 391.126 96.3829 392.921 94.7423C393.32 94.3943 393.918 94.4441 394.218 94.7921C394.567 95.1898 394.517 95.7864 394.168 96.0847C392.921 97.3275 390.877 97.8247 388.882 97.8247Z" fill="#DBB3A6"></path><path d="M388.932 92.4552C388.882 92.4552 388.832 92.4552 388.782 92.4552L387.735 92.1569C386.588 91.8586 385.94 90.6654 386.239 89.5717L387.585 84.2521C387.685 83.9041 388.034 83.7053 388.333 83.8047C388.682 83.9041 388.882 84.2521 388.782 84.5504L387.436 89.87C387.336 90.3671 387.585 90.8145 388.084 90.9637L389.131 91.262C389.48 91.3614 389.679 91.7094 389.58 92.0077C389.48 92.2563 389.231 92.4552 388.932 92.4552Z" fill="#DBB3A6"></path><path d="M403.543 117.959C401.199 117.959 399.903 115.672 399.205 112.689C398.806 111.049 398.606 109.16 398.507 107.32C395.764 110.9 392.373 112.938 388.733 112.938C384.994 112.938 381.453 110.751 378.711 106.922C378.212 112.143 377.016 117.959 374.124 117.959C383.697 123.677 393.47 123.776 403.543 117.959Z" fill="#FFD7CA"></path></g><mask id="mask4" mask-type="alpha" maskUnits="userSpaceOnUse" x="121" y="49" width="116" height="116" fill="none"><rect x="121.145" y="49.0346" width="115.376" height="115.376" rx="15" fill="#FFFFFF"></rect></mask><g mask="url(#mask4)" fill="none"><rect x="121.145" y="49.0346" width="115.376" height="115.376" rx="15" fill="#43A1BE"></rect><path d="M219.668 165.248H137.101C137.101 150.687 148.997 138.908 163.702 138.908H193.114C207.772 138.908 219.668 150.687 219.668 165.248Z" fill="#E6E6E6"></path><path d="M158.223 110.294C160.81 110.294 162.906 108.218 162.906 105.657C162.906 103.095 160.81 101.019 158.223 101.019C155.636 101.019 153.54 103.095 153.54 105.657C153.54 108.218 155.636 110.294 158.223 110.294Z" fill="#FFD7CA"></path><path d="M178.407 134.224C181.779 134.224 185.011 132.323 187.587 128.984C187.353 124.949 187.727 121.24 187.727 121.24H169.228C169.228 121.24 169.275 124.3 168.994 127.871C168.994 128.149 168.947 128.381 168.947 128.659C171.57 132.184 174.895 134.224 178.407 134.224Z" fill="#DBB3A6"></path><path d="M198.547 110.294C201.133 110.294 203.23 108.218 203.23 105.657C203.23 103.095 201.133 101.019 198.547 101.019C195.96 101.019 193.864 103.095 193.864 105.657C193.864 108.218 195.96 110.294 198.547 110.294Z" fill="#FFD7CA"></path><path d="M158.317 101.019C158.317 101.019 158.223 103.987 158.223 105.518C158.223 107.187 158.364 108.764 158.551 110.294H157.802C157.099 104.961 158.317 101.019 158.317 101.019Z" fill="#DBB3A6"></path><path d="M198.452 101.019C198.452 101.019 198.545 103.987 198.545 105.518C198.545 107.187 198.405 108.764 198.218 110.294H198.967C199.669 104.961 198.452 101.019 198.452 101.019Z" fill="#DBB3A6"></path><path d="M178.409 78.157C196.861 78.157 198.547 90.7708 198.547 105.472C198.547 120.172 189.133 130.653 178.409 130.653C167.684 130.653 158.27 120.219 158.27 105.472C158.27 90.7245 159.956 78.157 178.409 78.157Z" fill="#FFD7CA"></path><path d="M185.248 109.645C186.799 109.645 188.058 108.087 188.058 106.167C188.058 104.246 186.799 102.688 185.248 102.688C183.696 102.688 182.438 104.246 182.438 106.167C182.438 108.087 183.696 109.645 185.248 109.645Z" fill="#282B30"></path><path d="M171.522 109.645C173.074 109.645 174.332 108.087 174.332 106.167C174.332 104.246 173.074 102.688 171.522 102.688C169.97 102.688 168.712 104.246 168.712 106.167C168.712 108.087 169.97 109.645 171.522 109.645Z" fill="#282B30"></path><path d="M178.502 120.125C176.581 120.125 174.661 119.615 173.678 118.548C173.35 118.223 173.35 117.667 173.678 117.296C174.006 116.971 174.568 116.971 174.942 117.296C176.207 118.594 180.609 118.78 182.295 117.25C182.67 116.925 183.232 116.971 183.513 117.296C183.841 117.667 183.794 118.223 183.466 118.502C182.342 119.661 180.422 120.125 178.502 120.125Z" fill="#DBB3A6"></path><path d="M178.595 115.118C178.548 115.118 178.501 115.118 178.454 115.118L177.471 114.84C176.394 114.562 175.785 113.449 176.066 112.429L177.33 107.466C177.424 107.142 177.752 106.956 178.033 107.049C178.361 107.142 178.548 107.466 178.454 107.745L177.19 112.707C177.096 113.171 177.33 113.588 177.799 113.727L178.782 114.005C179.11 114.098 179.297 114.423 179.204 114.701C179.063 114.933 178.829 115.118 178.595 115.118Z" fill="#DBB3A6"></path><path d="M198.546 101.019C198.546 101.019 195.783 101.808 193.863 98.7006C192.879 97.0312 188.53 93.2746 186.423 92.3007C180.334 89.5183 185.155 87.4218 178.832 87.7464C171.058 88.1638 170.483 92.3007 170.483 92.3007C170.483 92.3007 164.311 98.8861 158.222 101.019C158.222 101.019 158.338 98.9664 158.338 93.8188C158.338 88.6713 167.447 81.674 171.523 82.4329C194.799 77.3781 193.254 83.9512 193.254 83.9512C193.254 83.9512 194.171 82.9235 197.028 87.7464C199.932 92.523 198.546 101.019 198.546 101.019Z" fill="#121212"></path><path d="M192.318 138.908C190.117 138.908 188.9 136.775 188.244 133.992C187.869 132.462 187.682 130.7 187.588 128.984C185.012 132.323 181.828 134.224 178.409 134.224C174.896 134.224 171.571 132.184 168.995 128.613C168.527 133.482 167.403 138.908 164.687 138.908C173.913 143.824 183.139 143.824 192.318 138.908Z" fill="#FFD7CA"></path><g clip-path="url(#clip0)" fill="none"><path d="M178.745 77.8627C180.187 77.8627 181.357 76.507 181.357 74.8345C181.357 73.1621 180.187 71.8063 178.745 71.8063C177.303 71.8063 176.133 73.1621 176.133 74.8345C176.133 76.507 177.303 77.8627 178.745 77.8627Z" fill="#164F78"></path><path d="M157.394 96.467C160.182 94.8429 180.118 84.1079 200.118 96.467C200.215 96.5285 200.3 96.6129 200.367 96.715C200.434 96.817 200.481 96.9342 200.506 97.059L201.586 102.445C201.617 102.595 201.613 102.752 201.575 102.9C201.537 103.048 201.467 103.181 201.37 103.287C201.274 103.393 201.155 103.468 201.025 103.504C200.896 103.54 200.761 103.536 200.633 103.493C196.001 101.711 178.551 96.2941 157.01 103.629C156.884 103.668 156.751 103.669 156.624 103.631C156.498 103.593 156.382 103.518 156.288 103.412C156.194 103.306 156.125 103.174 156.089 103.028C156.052 102.883 156.049 102.729 156.079 102.581L156.983 97.059C157.008 96.9305 157.058 96.8104 157.13 96.7078C157.201 96.6052 157.291 96.5228 157.394 96.467Z" fill="#164F78"></path><path d="M178.745 92.4747C185.932 92.4098 193.08 93.707 199.906 96.315C199.222 90.3706 196.699 84.9165 192.808 80.9663C188.916 77.0161 183.92 74.8387 178.747 74.8387C173.575 74.8387 168.579 77.0161 164.687 80.9663C160.795 84.9165 158.273 90.3706 157.589 96.315C164.413 93.7069 171.56 92.4097 178.745 92.4747Z" fill="#2879B3"></path></g></g><path d="M44 278H531V485H44V278Z" fill="url(&quot;#paint0_linear&quot;)"></path><defs><filter id="filter0_f" x="189.581" y="120.356" width="193.39" height="327.525" filterUnits="userSpaceOnUse" color-interpolation-filters="sRGB"><feFlood flood-opacity="0" result="BackgroundImageFix"></feFlood><feBlend mode="normal" in="SourceGraphic" in2="BackgroundImageFix" result="shape"></feBlend><feGaussianBlur stdDeviation="0.5" result="effect1_foregroundBlur"></feGaussianBlur></filter><filter id="filter1_f" x="512.705" y="75.2374" width="38.6127" height="38.6127" filterUnits="userSpaceOnUse" color-interpolation-filters="sRGB"><feFlood flood-opacity="0" result="BackgroundImageFix"></feFlood><feBlend mode="normal" in="SourceGraphic" in2="BackgroundImageFix" result="shape"></feBlend><feGaussianBlur stdDeviation="1" result="effect1_foregroundBlur"></feGaussianBlur></filter><filter id="filter2_f" x="530.171" y="221.541" width="21.3064" height="21.3064" filterUnits="userSpaceOnUse" color-interpolation-filters="sRGB"><feFlood flood-opacity="0" result="BackgroundImageFix"></feFlood><feBlend mode="normal" in="SourceGraphic" in2="BackgroundImageFix" result="shape"></feBlend><feGaussianBlur stdDeviation="1" result="effect1_foregroundBlur"></feGaussianBlur></filter><filter id="filter3_f" x="48.599" y="337.039" width="14.0954" height="14.0954" filterUnits="userSpaceOnUse" color-interpolation-filters="sRGB"><feFlood flood-opacity="0" result="BackgroundImageFix"></feFlood><feBlend mode="normal" in="SourceGraphic" in2="BackgroundImageFix" result="shape"></feBlend><feGaussianBlur stdDeviation="1" result="effect1_foregroundBlur"></feGaussianBlur></filter><filter id="filter4_f" x="40.7206" y="187.825" width="35.3766" height="35.3766" filterUnits="userSpaceOnUse" color-interpolation-filters="sRGB"><feFlood flood-opacity="0" result="BackgroundImageFix"></feFlood><feBlend mode="normal" in="SourceGraphic" in2="BackgroundImageFix" result="shape"></feBlend><feGaussianBlur stdDeviation="0.5" result="effect1_foregroundBlur"></feGaussianBlur></filter><linearGradient id="paint0_linear" x1="287.5" y1="367.095" x2="287.5" y2="435.918" gradientUnits="userSpaceOnUse"><stop stop-color="#F4FFFC" stop-opacity="0"></stop><stop offset="1" stop-color="#EBFCF8"></stop></linearGradient><clipPath id="clip0"><rect width="45.5431" height="31.8801" fill="white" transform="translate(156.062 71.8063)"></rect></clipPath><linearGradient id="paint0_linear" x1="287.5" y1="367.095" x2="287.5" y2="435.918" gradientUnits="userSpaceOnUse"><stop stop-color="#F4FFFC" stop-opacity="0"></stop><stop offset="1" stop-color="#EBFCF8"></stop></linearGradient></defs></svg>